<svg viewBox="0 0 32 32">
<path stroke-linejoin="round" stroke-linecap="round" stroke-miterlimit="4" stroke-width="2" d="M25.767 12.624c0 0-0.724 8.98-1.144 12.763-0.2 1.807-1.316 2.865-3.144 2.899-3.479 0.063-6.961 0.067-10.439-0.007-1.759-0.036-2.856-1.108-3.052-2.883-0.423-3.816-1.143-12.772-1.143-12.772"></path>
<path stroke-linejoin="round" stroke-linecap="round" stroke-miterlimit="4" stroke-width="2" d="M27.611 8.32h-22.611"></path>
<path stroke-linejoin="round" stroke-linecap="round" stroke-miterlimit="4" stroke-width="2" d="M23.254 8.32c-1.047 0-1.948-0.74-2.153-1.765l-0.324-1.621c-0.2-0.748-0.877-1.265-1.649-1.265h-5.644c-0.772 0-1.449 0.517-1.649 1.265l-0.324 1.621c-0.205 1.025-1.107 1.765-2.153 1.765"></path>
</svg>